<mxfile host="65bd71144e">
    <diagram id="P97_xuKwG86EWubtOpAw" name="第 1 页">
        <mxGraphModel dx="968" dy="558" grid="1" gridSize="10" guides="1" tooltips="1" connect="1" arrows="1" fold="1" page="1" pageScale="1" pageWidth="827" pageHeight="1169" math="0" shadow="0">
            <root>
                <mxCell id="0"/>
                <mxCell id="1" parent="0"/>
                <mxCell id="4" style="edgeStyle=none;html=1;exitX=1;exitY=0.5;exitDx=0;exitDy=0;entryX=0;entryY=0.5;entryDx=0;entryDy=0;fontSize=11;sketch=1;" edge="1" parent="1" source="2" target="3">
                    <mxGeometry relative="1" as="geometry"/>
                </mxCell>
                <mxCell id="2" value="double check&lt;br&gt;双重检查" style="rounded=0;whiteSpace=wrap;html=1;comic=1;fillColor=#ffe6cc;strokeColor=#d79b00;" vertex="1" parent="1">
                    <mxGeometry x="40" y="300" width="90" height="40" as="geometry"/>
                </mxCell>
                <mxCell id="6" style="edgeStyle=orthogonalEdgeStyle;sketch=1;html=1;exitX=0.5;exitY=1;exitDx=0;exitDy=0;entryX=0.5;entryY=0;entryDx=0;entryDy=0;fontSize=11;rounded=0;" edge="1" parent="1" source="3" target="5">
                    <mxGeometry relative="1" as="geometry"/>
                </mxCell>
                <mxCell id="3" value="&lt;pre style=&quot;background-color: rgb(255 , 255 , 255) ; color: rgb(8 , 8 , 8) ; font-family: &amp;#34;consolas&amp;#34; , monospace ; font-size: 11px&quot;&gt;&lt;span style=&quot;color: #0033b3&quot;&gt;public class &lt;/span&gt;&lt;span style=&quot;color: #066555&quot;&gt;Singleton1 &lt;/span&gt;{&lt;br&gt;    &lt;span style=&quot;color: #0033b3&quot;&gt;private static volatile &lt;/span&gt;&lt;span style=&quot;color: #066555&quot;&gt;Singleton1 &lt;/span&gt;&lt;span style=&quot;color: #871094 ; font-style: italic&quot;&gt;instance&lt;/span&gt;;&lt;br&gt;&lt;br&gt;    &lt;span style=&quot;color: #0033b3&quot;&gt;private &lt;/span&gt;&lt;span style=&quot;color: #795e26&quot;&gt;Singleton1&lt;/span&gt;() {}&lt;br&gt;&lt;br&gt;    &lt;span style=&quot;color: #0033b3&quot;&gt;public static &lt;/span&gt;&lt;span style=&quot;color: #066555&quot;&gt;Singleton1 &lt;/span&gt;&lt;span style=&quot;color: #795e26&quot;&gt;getInstance&lt;/span&gt;() {&lt;br&gt;        &lt;span style=&quot;color: #0033b3&quot;&gt;if &lt;/span&gt;(&lt;span style=&quot;color: #871094 ; font-style: italic&quot;&gt;instance &lt;/span&gt;== &lt;span style=&quot;color: #0033b3&quot;&gt;null&lt;/span&gt;) {&lt;br&gt;            &lt;span style=&quot;color: #0033b3&quot;&gt;synchronized &lt;/span&gt;(&lt;span style=&quot;color: #066555&quot;&gt;Singleton1&lt;/span&gt;.&lt;span style=&quot;color: #0033b3&quot;&gt;class&lt;/span&gt;) {&lt;br&gt;                &lt;span style=&quot;color: #0033b3&quot;&gt;if &lt;/span&gt;(&lt;span style=&quot;color: #871094 ; font-style: italic&quot;&gt;instance &lt;/span&gt;== &lt;span style=&quot;color: #0033b3&quot;&gt;null&lt;/span&gt;) {&lt;br&gt;                    &lt;span style=&quot;color: #871094 ; font-style: italic&quot;&gt;instance &lt;/span&gt;= &lt;span style=&quot;color: #0033b3&quot;&gt;new &lt;/span&gt;&lt;span style=&quot;color: #795e26&quot;&gt;Singleton1&lt;/span&gt;();&lt;br&gt;                }&lt;br&gt;            }&lt;br&gt;        }&lt;br&gt;        &lt;span style=&quot;color: #0033b3&quot;&gt;return &lt;/span&gt;&lt;span style=&quot;color: #871094 ; font-style: italic&quot;&gt;instance&lt;/span&gt;;&lt;br&gt;    }&lt;br&gt;}&lt;/pre&gt;" style="rounded=0;whiteSpace=wrap;html=1;comic=1;fillColor=#ffe6cc;strokeColor=#d79b00;align=left;" vertex="1" parent="1">
                    <mxGeometry x="180" y="210" width="296" height="220" as="geometry"/>
                </mxCell>
                <mxCell id="11" style="edgeStyle=orthogonalEdgeStyle;rounded=0;sketch=1;html=1;exitX=1;exitY=0.5;exitDx=0;exitDy=0;entryX=0;entryY=0.5;entryDx=0;entryDy=0;fontSize=11;" edge="1" parent="1" source="5" target="10">
                    <mxGeometry relative="1" as="geometry"/>
                </mxCell>
                <mxCell id="12" value="不添加可能&lt;br&gt;出现的情况" style="rounded=0;sketch=1;html=1;exitX=0.5;exitY=1;exitDx=0;exitDy=0;entryX=0.5;entryY=0;entryDx=0;entryDy=0;fontSize=11;" edge="1" parent="1" source="5" target="9">
                    <mxGeometry relative="1" as="geometry"/>
                </mxCell>
                <mxCell id="5" value="疑问：&lt;br&gt;为什么instance需要添加&lt;b&gt;volatile&lt;/b&gt;修饰呢" style="rounded=0;whiteSpace=wrap;html=1;comic=1;fillColor=#b0e3e6;strokeColor=#0e8088;align=left;sketch=0;" vertex="1" parent="1">
                    <mxGeometry x="90" y="470" width="220" height="40" as="geometry"/>
                </mxCell>
                <mxCell id="7" value="&lt;span style=&quot;font-size: 10px&quot;&gt;&lt;font color=&quot;#6262fc&quot;&gt;①&lt;br&gt;&lt;/font&gt;&lt;/span&gt;" style="rounded=0;whiteSpace=wrap;html=1;fillColor=none;strokeColor=none;comic=1;align=left;sketch=1;" vertex="1" parent="1">
                    <mxGeometry x="370" y="290" width="30" height="20" as="geometry"/>
                </mxCell>
                <mxCell id="8" value="&lt;span style=&quot;font-size: 10px&quot;&gt;&lt;font color=&quot;#6262fc&quot;&gt;②&lt;br&gt;&lt;/font&gt;&lt;/span&gt;" style="rounded=0;whiteSpace=wrap;html=1;fillColor=none;strokeColor=none;comic=1;align=left;sketch=1;" vertex="1" parent="1">
                    <mxGeometry x="476" y="330" width="30" height="20" as="geometry"/>
                </mxCell>
                <mxCell id="14" value="指令&lt;br&gt;重排" style="edgeStyle=none;rounded=0;sketch=1;html=1;exitX=1;exitY=0.5;exitDx=0;exitDy=0;entryX=0;entryY=0.5;entryDx=0;entryDy=0;fontSize=11;" edge="1" parent="1" source="9" target="13">
                    <mxGeometry relative="1" as="geometry"/>
                </mxCell>
                <mxCell id="9" value="instance = new Singleton1()&lt;br&gt;这步一般的执行逻辑为：&lt;br&gt;1. 分配Singleton1对象所需内存&lt;br&gt;2. 初始化该对象&lt;br&gt;3. 内存地址赋值到instance" style="rounded=0;whiteSpace=wrap;html=1;comic=1;fillColor=#ffe6cc;strokeColor=#d79b00;align=left;sketch=1;" vertex="1" parent="1">
                    <mxGeometry x="109.5" y="560" width="181" height="90" as="geometry"/>
                </mxCell>
                <mxCell id="10" value="目的：防止由于指令重拍导致另一线程获得未初始化的对象" style="rounded=0;whiteSpace=wrap;html=1;comic=1;fillColor=#dae8fc;strokeColor=#6c8ebf;align=left;sketch=0;" vertex="1" parent="1">
                    <mxGeometry x="350" y="470" width="220" height="40" as="geometry"/>
                </mxCell>
                <mxCell id="16" value="场景" style="edgeStyle=none;rounded=0;sketch=1;html=1;exitX=1;exitY=0.5;exitDx=0;exitDy=0;entryX=0;entryY=0.5;entryDx=0;entryDy=0;fontSize=11;" edge="1" parent="1" source="13" target="15">
                    <mxGeometry relative="1" as="geometry"/>
                </mxCell>
                <mxCell id="13" value="1. 分配Singleton1对象所需内存&lt;br&gt;3. 内存地址赋值到instance&lt;br&gt;2.初始化该对象" style="rounded=0;whiteSpace=wrap;html=1;comic=1;fillColor=#dae8fc;strokeColor=#6c8ebf;align=left;sketch=1;" vertex="1" parent="1">
                    <mxGeometry x="350" y="575" width="181" height="60" as="geometry"/>
                </mxCell>
                <mxCell id="15" value="1) &lt;b&gt;线程A&lt;/b&gt;在①处&lt;b&gt;刚执行完3&lt;/b&gt;，还未初始化对象，instance就已经有值了&lt;br&gt;2) &lt;b&gt;线程B&lt;/b&gt;执行到①，发现instance不为空，返回instance进行使用，此时&lt;b&gt;使用到的是未初始化的对象&lt;/b&gt;" style="rounded=0;whiteSpace=wrap;html=1;comic=1;fillColor=#e1d5e7;strokeColor=#9673a6;align=left;sketch=0;" vertex="1" parent="1">
                    <mxGeometry x="580" y="562.5" width="190" height="85" as="geometry"/>
                </mxCell>
                <mxCell id="20" style="edgeStyle=none;rounded=0;sketch=1;html=1;exitX=1;exitY=0.5;exitDx=0;exitDy=0;entryX=0;entryY=0.5;entryDx=0;entryDy=0;fontSize=11;" edge="1" parent="1" source="17" target="19">
                    <mxGeometry relative="1" as="geometry"/>
                </mxCell>
                <mxCell id="17" value="静态内部类" style="rounded=0;whiteSpace=wrap;html=1;comic=1;fillColor=#ffe6cc;strokeColor=#d79b00;" vertex="1" parent="1">
                    <mxGeometry x="40" y="742.5" width="90" height="35" as="geometry"/>
                </mxCell>
                <mxCell id="22" style="edgeStyle=none;rounded=0;sketch=1;html=1;exitX=1;exitY=0.5;exitDx=0;exitDy=0;entryX=0;entryY=0.5;entryDx=0;entryDy=0;fontSize=11;" edge="1" parent="1" source="19" target="21">
                    <mxGeometry relative="1" as="geometry"/>
                </mxCell>
                <mxCell id="19" value="&lt;pre style=&quot;background-color: rgb(255 , 255 , 255) ; color: rgb(8 , 8 , 8) ; font-family: &amp;#34;consolas&amp;#34; , monospace ; font-size: 11px&quot;&gt;&lt;pre style=&quot;font-family: &amp;#34;consolas&amp;#34; , monospace&quot;&gt;&lt;span style=&quot;color: #0033b3&quot;&gt;public class &lt;/span&gt;&lt;span style=&quot;color: #066555&quot;&gt;Singleton2 &lt;/span&gt;{&lt;br&gt;    &lt;span style=&quot;color: #0033b3&quot;&gt;private static class &lt;/span&gt;&lt;span style=&quot;color: #066555&quot;&gt;LazyHolder &lt;/span&gt;{&lt;br&gt;        &lt;span style=&quot;color: #0033b3&quot;&gt;static final &lt;/span&gt;&lt;span style=&quot;color: #066555&quot;&gt;Singleton2 &lt;/span&gt;&lt;span style=&quot;color: #871094 ; font-style: italic&quot;&gt;INSTANCE &lt;/span&gt;= &lt;span style=&quot;color: #0033b3&quot;&gt;new &lt;/span&gt;&lt;span style=&quot;color: #795e26&quot;&gt;Singleton2&lt;/span&gt;();&lt;br&gt;    }&lt;br&gt;&lt;br&gt;    &lt;span style=&quot;color: #0033b3&quot;&gt;public static &lt;/span&gt;&lt;span style=&quot;color: #066555&quot;&gt;Singleton2 &lt;/span&gt;&lt;span style=&quot;color: #795e26&quot;&gt;getInstance&lt;/span&gt;() {&lt;br&gt;        &lt;span style=&quot;color: #0033b3&quot;&gt;return &lt;/span&gt;&lt;span style=&quot;color: #066555&quot;&gt;LazyHolder&lt;/span&gt;.&lt;span style=&quot;color: #871094 ; font-style: italic&quot;&gt;INSTANCE&lt;/span&gt;;&lt;br&gt;    }&lt;br&gt;}&lt;/pre&gt;&lt;/pre&gt;" style="rounded=0;whiteSpace=wrap;html=1;comic=1;fillColor=#ffe6cc;strokeColor=#d79b00;align=left;" vertex="1" parent="1">
                    <mxGeometry x="180" y="700" width="370" height="120" as="geometry"/>
                </mxCell>
                <mxCell id="21" value="当调用getInstance时才会：&lt;br&gt;① 触发LazyHolder类的类加载&lt;br&gt;② 执行LazyHolder#&amp;lt;cinit&amp;gt;，创建单例对象" style="rounded=0;whiteSpace=wrap;html=1;comic=1;fillColor=#ffe6cc;strokeColor=#d79b00;align=left;sketch=1;" vertex="1" parent="1">
                    <mxGeometry x="584.5" y="722.5" width="181" height="75" as="geometry"/>
                </mxCell>
                <mxCell id="25" style="edgeStyle=none;rounded=0;sketch=1;html=1;exitX=1;exitY=0.5;exitDx=0;exitDy=0;entryX=0;entryY=0.5;entryDx=0;entryDy=0;fontSize=11;" edge="1" parent="1" source="23" target="24">
                    <mxGeometry relative="1" as="geometry"/>
                </mxCell>
                <mxCell id="23" value="枚举类" style="rounded=0;whiteSpace=wrap;html=1;comic=1;fillColor=#ffe6cc;strokeColor=#d79b00;" vertex="1" parent="1">
                    <mxGeometry x="40" y="873.75" width="60" height="35" as="geometry"/>
                </mxCell>
                <mxCell id="27" style="edgeStyle=none;rounded=0;sketch=1;html=1;exitX=1;exitY=0.5;exitDx=0;exitDy=0;entryX=0;entryY=0.5;entryDx=0;entryDy=0;fontSize=11;" edge="1" parent="1" source="24" target="26">
                    <mxGeometry relative="1" as="geometry"/>
                </mxCell>
                <mxCell id="24" value="&lt;pre style=&quot;background-color: rgb(255 , 255 , 255) ; color: rgb(8 , 8 , 8) ; font-family: &amp;#34;consolas&amp;#34; , monospace ; font-size: 11px&quot;&gt;&lt;span style=&quot;color: #0033b3&quot;&gt;public enum &lt;/span&gt;&lt;span style=&quot;color: #066555&quot;&gt;Singleton3 &lt;/span&gt;{&lt;br&gt;    &lt;span style=&quot;color: #871094 ; font-style: italic&quot;&gt;INSTANCE&lt;/span&gt;;&lt;br&gt;    &lt;span style=&quot;color: #795e26&quot;&gt;Singleton3&lt;/span&gt;() {&lt;br&gt;        &lt;span style=&quot;color: #066555&quot;&gt;System&lt;/span&gt;.&lt;span style=&quot;color: #871094 ; font-style: italic&quot;&gt;out&lt;/span&gt;.&lt;span style=&quot;color: #795e26&quot;&gt;println&lt;/span&gt;(&lt;span style=&quot;color: #067d17 ; font-weight: bold&quot;&gt;&quot;INSTANCE&lt;/span&gt;&lt;span style=&quot;color: #067d17 ; font-weight: bold ; font-family: &amp;#34;宋体&amp;#34; , monospace&quot;&gt;创建&lt;/span&gt;&lt;span style=&quot;color: #067d17 ; font-weight: bold&quot;&gt;&quot;&lt;/span&gt;);&lt;br&gt;    }&lt;br&gt;}&lt;/pre&gt;" style="rounded=0;whiteSpace=wrap;html=1;comic=1;fillColor=#ffe6cc;strokeColor=#d79b00;align=left;" vertex="1" parent="1">
                    <mxGeometry x="148" y="850" width="266" height="82.5" as="geometry"/>
                </mxCell>
                <mxCell id="26" value="其实这种写法也是一种&lt;b&gt;饿汉式&lt;/b&gt;写法，优点只是无法通过反射创建实例对象" style="rounded=0;whiteSpace=wrap;html=1;comic=1;fillColor=#ffe6cc;strokeColor=#d79b00;align=left;sketch=1;" vertex="1" parent="1">
                    <mxGeometry x="460" y="861.25" width="181" height="60" as="geometry"/>
                </mxCell>
                <mxCell id="30" style="edgeStyle=none;rounded=0;sketch=1;html=1;exitX=1;exitY=0.5;exitDx=0;exitDy=0;entryX=0;entryY=0.5;entryDx=0;entryDy=0;fontSize=11;" edge="1" parent="1" source="28" target="29">
                    <mxGeometry relative="1" as="geometry"/>
                </mxCell>
                <mxCell id="28" value="经典饿汉式" style="rounded=0;whiteSpace=wrap;html=1;comic=1;fillColor=#ffe6cc;strokeColor=#d79b00;" vertex="1" parent="1">
                    <mxGeometry x="40" y="80" width="90" height="40" as="geometry"/>
                </mxCell>
                <mxCell id="32" style="edgeStyle=none;rounded=0;sketch=1;html=1;exitX=1;exitY=0.5;exitDx=0;exitDy=0;entryX=0;entryY=0.5;entryDx=0;entryDy=0;fontSize=11;" edge="1" parent="1" source="29" target="31">
                    <mxGeometry relative="1" as="geometry"/>
                </mxCell>
                <mxCell id="29" value="&lt;pre style=&quot;background-color: rgb(255 , 255 , 255) ; color: rgb(8 , 8 , 8) ; font-family: &amp;#34;consolas&amp;#34; , monospace ; font-size: 11px&quot;&gt;&lt;pre style=&quot;font-family: &amp;#34;consolas&amp;#34; , monospace&quot;&gt;&lt;pre style=&quot;font-family: &amp;#34;consolas&amp;#34; , monospace&quot;&gt;&lt;span style=&quot;color: #0033b3&quot;&gt;public class &lt;/span&gt;&lt;span style=&quot;color: #066555&quot;&gt;Singleton4 &lt;/span&gt;{&lt;br&gt;    &lt;span style=&quot;color: #0033b3&quot;&gt;public static &lt;/span&gt;&lt;span style=&quot;color: #066555&quot;&gt;Singleton4 &lt;/span&gt;&lt;span style=&quot;color: #871094 ; font-style: italic&quot;&gt;instance &lt;/span&gt;= &lt;span style=&quot;color: #0033b3&quot;&gt;new &lt;/span&gt;&lt;span style=&quot;color: #795e26&quot;&gt;Singleton4&lt;/span&gt;();&lt;br&gt;&lt;br&gt;    &lt;span style=&quot;color: #0033b3&quot;&gt;private &lt;/span&gt;&lt;span style=&quot;color: #795e26&quot;&gt;Singleton4&lt;/span&gt;() {}&lt;br&gt;&lt;br&gt;    &lt;span style=&quot;color: #0033b3&quot;&gt;public static &lt;/span&gt;&lt;span style=&quot;color: #066555&quot;&gt;Singleton4 &lt;/span&gt;&lt;span style=&quot;color: #795e26&quot;&gt;getInstance&lt;/span&gt;() {&lt;br&gt;        &lt;span style=&quot;color: #0033b3&quot;&gt;return &lt;/span&gt;&lt;span style=&quot;color: #871094 ; font-style: italic&quot;&gt;instance&lt;/span&gt;;&lt;br&gt;    }&lt;br&gt;}&lt;br&gt;&lt;/pre&gt;&lt;/pre&gt;&lt;/pre&gt;" style="rounded=0;whiteSpace=wrap;html=1;comic=1;fillColor=#ffe6cc;strokeColor=#d79b00;align=left;" vertex="1" parent="1">
                    <mxGeometry x="180" y="40" width="350" height="120" as="geometry"/>
                </mxCell>
                <mxCell id="34" style="edgeStyle=none;rounded=0;sketch=1;html=1;exitX=0.5;exitY=1;exitDx=0;exitDy=0;entryX=0.5;entryY=0;entryDx=0;entryDy=0;fontSize=11;" edge="1" parent="1" source="31" target="33">
                    <mxGeometry relative="1" as="geometry"/>
                </mxCell>
                <mxCell id="31" value="&lt;b&gt;类加载时&lt;/b&gt;就会&lt;b&gt;创建单例对象&lt;/b&gt;，但实际上也只有调用这个getInstance()方法才会触发类加载。" style="rounded=0;whiteSpace=wrap;html=1;comic=1;fillColor=#ffe6cc;strokeColor=#d79b00;align=left;sketch=1;" vertex="1" parent="1">
                    <mxGeometry x="584.5" y="65.63" width="191" height="68.75" as="geometry"/>
                </mxCell>
                <mxCell id="33" value="除非这个类还有其他可供使用的静态方法，否则其实饿汉式并不会提前构造不使用的单例资源" style="rounded=0;whiteSpace=wrap;html=1;comic=1;fillColor=#dae8fc;strokeColor=#6c8ebf;align=left;sketch=1;" vertex="1" parent="1">
                    <mxGeometry x="584.5" y="160" width="191" height="60" as="geometry"/>
                </mxCell>
            </root>
        </mxGraphModel>
    </diagram>
</mxfile>